HIERARCHY
ROOT Hips
{
 OFFSET 0.000000 0.000000 0.000000
 CHANNELS 6 Xposition Yposition Zposition Yrotation Xrotation Zrotation
 JOINT Chest
 {
  OFFSET 0.000000 9.585900 0.002600
  CHANNELS 3 Yrotation Xrotation Zrotation
  JOINT Chest2
  {
   OFFSET 0.000000 9.601200 -0.005300
   CHANNELS 3 Yrotation Xrotation Zrotation
   JOINT Chest3
   {
    OFFSET 0.000000 9.561800 0.000000
    CHANNELS 3 Yrotation Xrotation Zrotation
    JOINT Chest4
    {
     OFFSET 0.000000 9.552100 0.000000
     CHANNELS 3 Yrotation Xrotation Zrotation
     JOINT Neck
     {
      OFFSET 0.000000 14.453000 0.000000
      CHANNELS 3 Yrotation Xrotation Zrotation
      JOINT Head
      {
       OFFSET 0.000000 8.936500 -0.011300
       CHANNELS 3 Yrotation Xrotation Zrotation
       End Site
       {
        OFFSET 0.000000 17.073600 -0.006000
       }
      }
     }
     JOINT RightCollar
     {
      OFFSET -2.921100 9.558500 0.000000
      CHANNELS 3 Yrotation Xrotation Zrotation
      JOINT RightShoulder
      {
       OFFSET -13.519700 0.000000 0.000000
       CHANNELS 3 Yrotation Xrotation Zrotation
       JOINT RightElbow
       {
        OFFSET 0.000000 -29.696600 0.000000
        CHANNELS 3 Yrotation Xrotation Zrotation
        JOINT RightWrist
        {
         OFFSET 0.000000 -24.004700 0.000000
         CHANNELS 3 Yrotation Xrotation Zrotation
         End Site
         {
          OFFSET 0.000000 -17.728500 0.000000
         }
        }
       }
      }
     }
     JOINT LeftCollar
     {
      OFFSET 2.921100 9.558500 0.000000
      CHANNELS 3 Yrotation Xrotation Zrotation
      JOINT LeftShoulder
      {
       OFFSET 13.519700 0.000000 0.000000
       CHANNELS 3 Yrotation Xrotation Zrotation
       JOINT LeftElbow
       {
        OFFSET 0.000000 -29.696600 0.000000
        CHANNELS 3 Yrotation Xrotation Zrotation
        JOINT LeftWrist
        {
         OFFSET 0.000000 -24.004700 0.000000
         CHANNELS 3 Yrotation Xrotation Zrotation
         End Site
         {
          OFFSET 0.000000 -17.728500 0.000000
         }
        }
       }
      }
     }
    }
   }
  }
 }
 JOINT RightHip
 {
  OFFSET -7.771700 -0.012900 -0.001300
  CHANNELS 3 Yrotation Xrotation Zrotation
  JOINT RightKnee
  {
   OFFSET 0.000000 -40.869800 0.001200
   CHANNELS 3 Yrotation Xrotation Zrotation
   JOINT RightAnkle
   {
    OFFSET 0.000000 -39.717900 0.002100
    CHANNELS 3 Yrotation Xrotation Zrotation
    JOINT RightToe
    {
     OFFSET 0.000000 -4.965400 11.033500
     CHANNELS 3 Yrotation Xrotation Zrotation
     End Site
     {
      OFFSET 0.000000 -1.423100 5.872300
     }
    }
   }
  }
 }
 JOINT LeftHip
 {
  OFFSET 7.771700 -0.012900 -0.001300
  CHANNELS 3 Yrotation Xrotation Zrotation
  JOINT LeftKnee
  {
   OFFSET 0.000000 -40.869800 0.001200
   CHANNELS 3 Yrotation Xrotation Zrotation
   JOINT LeftAnkle
   {
    OFFSET 0.000000 -39.717900 0.002100
    CHANNELS 3 Yrotation Xrotation Zrotation
    JOINT LeftToe
    {
     OFFSET 0.000000 -4.965400 11.033500
     CHANNELS 3 Yrotation Xrotation Zrotation
     End Site
     {
      OFFSET 0.000000 -1.423100 5.872300
     }
    }
   }
  }
 }
}
MOTION
Frames: 15
Frame Time: 0.008333
0.000000 85.388000 0.000000 0.000000 -5.767877 0.000000 0.000000 11.653817 0.000000 0.000000 -5.885947 0.000000 0.000000 -0.000000 0.000000 0.000000 -0.000000 0.000000 0.000000 12.528835 0.000000 0.000000 0.711642 0.000000 0.000000 -0.000000 0.000000 0.000000 0.000000 -90.000000 0.000000 -2.309062 0.000000 0.000000 2.309062 0.000000 0.000000 -0.000000 0.000000 0.000000 -0.000000 90.000000 0.000000 -2.309062 0.000000 0.000000 2.309062 0.000000 0.000000 8.520406 0.000000 0.000000 1.905762 0.000000 -0.000000 -4.658285 0.000000 0.000000 -0.000000 0.000000 0.000000 8.520406 0.000000 0.000000 1.905762 0.000000 -0.000000 -4.658285 0.000000 0.000000 -0.000000 0.000000
-12.809416 55.391828 34.704887 -178.021905 -28.182828 -11.624012 0.643584 11.775253 6.524731 0.019254 6.891043 2.123577 0.055206 8.649332 2.652275 0.030691 6.855495 2.129815 2.367837 23.501099 0.475441 2.461066 -0.476355 -0.026715 -3.402155 2.315334 -4.280785 -13.011695 -6.679650 7.257065 35.118198 -75.865243 -16.617435 9.736311 -14.364022 -19.504397 -9.979078 3.671995 -2.605674 3.543879 -0.221652 -1.808317 -85.870106 -77.349055 96.357091 13.933389 -37.788581 14.419543 -18.867088 -36.562288 6.496342 52.494447 84.746591 47.243090 -1.087860 -20.345740 3.378880 -1.404740 2.799574 -0.627439 -17.504689 -48.664352 18.252902 179.005763 80.138083 173.411775 -2.513454 -18.073380 2.710805 -0.090626 -0.461290 -0.062813
-12.804699 55.387216 34.703738 -178.027619 -28.195361 -11.629485 0.642945 11.796767 6.522996 0.014840 6.923147 2.116926 0.066567 8.656717 2.658649 0.025212 6.902726 2.125645 2.364139 23.468636 0.471172 2.390716 -0.341921 -0.029960 -3.393639 2.261766 -4.260201 -12.967532 -6.706168 7.251492 35.104326 -75.761134 -16.613090 9.746695 -14.343356 -19.540741 -10.017187 3.691494 -2.585915 3.548439 -0.288148 -1.801969 -85.850701 -77.545853 96.294554 13.923014 -37.615063 14.379422 -18.861067 -36.552653 6.507112 52.538692 84.752846 47.293445 -1.099601 -20.351286 3.375653 -1.392774 2.804582 -0.627226 -17.528886 -48.653098 18.266471 179.012958 80.126399 173.419323 -2.502353 -18.079167 2.701797 -0.096172 -0.459588 -0.062086
-12.799638 55.381955 34.702722 -178.028691 -28.211592 -11.636313 0.641115 11.827579 6.520655 0.023002 6.916134 2.123275 0.065190 8.677829 2.657702 0.020263 6.974955 2.125683 2.298821 23.520912 0.441549 2.350723 -0.333881 -0.047744 -3.440407 2.348210 -4.225366 -12.886569 -6.882138 7.258591 35.138026 -75.720713 -16.671629 9.779844 -14.284924 -19.551949 -10.061718 3.725198 -2.567229 3.564210 -0.361439 -1.792314 -85.927015 -77.724596 96.316096 13.907325 -37.474878 14.338572 -18.858021 -36.539896 6.511665 52.617214 84.758111 47.373314 -1.071053 -20.358649 3.358652 -1.383184 2.808465 -0.622080 -17.552778 -48.639966 18.270879 178.950574 80.112180 173.363565 -2.494060 -18.084673 2.686871 -0.097116 -0.459415 -0.067346
-12.793767 55.376969 34.700893 -178.030033 -28.241624 -11.646029 0.628005 11.893768 6.511396 0.040837 6.920750 2.131221 0.066672 8.734525 2.664995 0.026488 6.985957 2.129306 2.215915 23.560990 0.396921 2.302438 -0.352231 -0.077524 -3.486503 2.414910 -4.211168 -12.774353 -7.013934 7.273847 35.256096 -75.707086 -16.848432 9.820959 -14.245908 -19.555166 -10.105889 3.776340 -2.546524 3.597712 -0.485660 -1.801722 -85.880028 -77.854083 96.195244 13.882351 -37.374954 14.298632 -18.848754 -36.514796 6.516749 52.698717 84.765504 47.461789 -1.064506 -20.359360 3.343246 -1.352582 2.805477 -0.615099 -17.556640 -48.614999 18.270270 178.962534 80.098633 173.385609 -2.484299 -18.092153 2.676571 -0.098758 -0.458741 -0.066281
-12.788319 55.371618 34.699400 -178.029061 -28.278763 -11.652857 0.621870 11.952395 6.511293 0.037404 6.987204 2.133641 0.079376 8.763465 2.673186 0.033671 7.000635 2.133588 2.132755 23.555959 0.340636 2.225221 -0.360237 -0.119368 -3.528516 2.450308 -4.203566 -12.635969 -7.078154 7.290155 35.653162 -75.698837 -17.333727 9.834254 -14.262988 -19.554237 -10.145834 3.828747 -2.517711 3.625546 -0.631770 -1.822706 -85.822214 -77.925382 96.076936 13.850421 -37.311647 14.265278 -18.838576 -36.484716 6.513740 52.776204 84.775811 47.546041 -1.053060 -20.361252 3.325465 -1.341744 2.802606 -0.608185 -17.552670 -48.585017 18.261404 179.003028 80.085937 173.434682 -2.476655 -18.096867 2.675634 -0.100612 -0.459397 -0.065505
-12.780506 55.369781 34.692486 -178.056848 -28.371889 -11.660882 0.653260 12.064518 6.530578 0.039326 7.041032 2.141034 0.090825 8.800598 2.682184 0.039299 7.041026 2.140975 2.027892 23.538091 0.265083 2.128833 -0.384173 -0.177031 -3.578704 2.479718 -4.199990 -12.539997 -7.169307 7.302319 36.261700 -75.652968 -17.995818 9.797490 -14.322475 -19.540643 -10.184978 3.880960 -2.482741 3.592701 -0.683532 -1.799289 -86.234548 -77.987798 96.508515 13.812426 -37.276649 14.248507 -18.799756 -36.403808 6.522487 52.804380 84.795514 47.573826 -1.060260 -20.340986 3.309617 -1.325366 2.778011 -0.595148 -17.502573 -48.495573 18.239415 179.072885 80.069386 173.522620 -2.451066 -18.112148 2.658290 -0.102142 -0.464305 -0.063380
-12.774329 55.362484 34.695059 -178.057747 -28.407081 -11.669443 0.649114 12.119947 6.539995 0.040771 7.092978 2.153334 0.100212 8.858074 2.694891 0.046521 7.086991 2.150976 1.901173 23.507330 0.172165 2.012691 -0.423989 -0.248428 -3.636592 2.505182 -4.202754 -12.465529 -7.274990 7.311059 36.680115 -75.694885 -18.445089 9.846092 -14.339043 -19.534001 -10.226377 3.935276 -2.446288 3.568137 -0.785304 -1.804020 -86.502680 -77.968778 96.793384 13.771043 -37.258627 14.242339 -18.799979 -36.377317 6.534422 52.856491 84.808228 47.628144 -1.078924 -20.339914 3.301044 -1.307733 2.777386 -0.589649 -17.493121 -48.473069 18.232751 179.068868 80.056030 173.530653 -2.443662 -18.114081 2.650258 -0.107766 -0.464365 -0.060318
-12.765826 55.358537 34.692687 -178.076436 -28.495807 -11.685013 0.683265 12.210509 6.566331 0.032623 7.160846 2.173114 0.111568 8.920845 2.710609 0.055171 7.137178 2.163386 1.757442 23.463909 0.067573 1.880840 -0.479103 -0.328520 -3.701096 2.530056 -4.209757 -12.401092 -7.382425 7.318333 37.403086 -75.753011 -19.200958 9.840075 -14.348182 -19.519452 -10.268296 3.991832 -2.410039 3.542893 -0.914870 -1.822275 -86.690466 -77.907034 96.993414 13.736942 -37.257437 14.222695 -18.769115 -36.294063 6.538067 52.953272 84.805237 47.739678 -1.121209 -20.339412 3.287380 -1.326319 2.778930 -0.585675 -17.451797 -48.390545 18.223897 179.081903 80.039820 173.558469 -2.440221 -18.129429 2.644485 -0.109878 -0.463359 -0.059422
-12.757545 55.354206 34.691375 -178.097138 -28.593125 -11.698792 0.704567 12.328251 6.596138 0.044011 7.213855 2.189603 0.123446 8.988444 2.728819 0.064129 7.191312 2.177734 1.602350 23.412122 -0.043918 1.738358 -0.544086 -0.413355 -3.770720 2.550786 -4.216776 -12.345900 -7.494386 7.321844 38.206603 -75.825652 -20.033787 9.829360 -14.356061 -19.506085 -10.310018 4.047946 -2.374556 3.507576 -1.045777 -1.836586 -86.899193 -77.837796 97.216633 13.715845 -37.273601 14.177336 -18.733213 -36.204629 6.539286 52.971272 84.810800 47.754659 -1.098912 -20.338594 3.271961 -1.327856 2.779948 -0.580306 -17.402424 -48.302317 18.208712 179.123383 80.024045 173.615470 -2.430758 -18.140650 2.640405 -0.111411 -0.465184 -0.060170
-12.751584 55.348368 34.692658 -178.103871 -28.684797 -11.705817 0.694942 12.463738 6.625434 0.072163 7.249272 2.193020 0.134219 9.060744 2.748284 0.072177 7.249245 2.193037 1.444642 23.362374 -0.156430 1.593392 -0.606250 -0.498601 -3.840445 2.565047 -4.218863 -12.296794 -7.612128 7.314108 38.953965 -75.914986 -20.804884 9.840741 -14.365674 -19.499354 -10.351570 4.103608 -2.340553 3.467666 -1.181019 -1.844329 -87.108622 -77.771162 97.441154 13.703848 -37.302680 14.114506 -18.710509 -36.127513 6.551758 52.989083 84.833202 47.768397 -1.189300 -20.324634 3.276889 -1.263682 2.770899 -0.566696 -17.351622 -48.224519 18.178836 179.253203 80.013336 173.753865 -2.411924 -18.144747 2.646857 -0.111218 -0.467237 -0.063119
-12.746371 55.342225 34.695438 -178.110784 -28.781516 -11.709550 0.714179 12.567279 6.639641 0.070589 7.315867 2.215822 0.143143 9.136115 2.767149 0.078741 7.309617 2.207920 1.295140 23.325448 -0.261681 1.455817 -0.652530 -0.577848 -3.902909 2.575152 -4.211191 -12.254026 -7.733358 7.290250 39.720395 -76.008285 -21.592950 9.849363 -14.374239 -19.498603 -10.389389 4.163140 -2.307629 3.426390 -1.320525 -1.843763 -87.299821 -77.711001 97.642001 13.692825 -37.340929 14.049506 -18.674555 -36.043684 6.543447 52.993988 84.842219 47.791901 -1.307936 -20.325825 3.297928 -1.277722 2.778764 -0.576253 -17.293301 -48.143395 18.140739 179.287716 80.003089 173.798013 -2.406349 -18.148755 2.650166 -0.112532 -0.467937 -0.063089
-12.740565 55.336881 34.698834 -178.112412 -28.888264 -11.721352 0.731908 12.680421 6.660512 0.067490 7.378220 2.236182 0.150189 9.212539 2.784852 0.083795 7.370832 2.221915 1.160558 23.305670 -0.354673 1.331765 -0.677822 -0.647269 -3.952624 2.581923 -4.192925 -12.218338 -7.853746 7.251441 40.478615 -76.096379 -22.370920 9.858611 -14.382050 -19.512529 -10.422065 4.224283 -2.278740 3.388832 -1.453255 -1.832203 -87.490825 -77.658116 97.831097 13.676328 -37.387675 13.992909 -18.638838 -35.946970 6.526493 52.973757 84.848000 47.790419 -1.363165 -20.326699 3.299452 -1.284476 2.785993 -0.580440 -17.245508 -48.047828 18.111550 179.317458 79.994134 173.832956 -2.405127 -18.157649 2.653871 -0.112017 -0.463950 -0.063485
-12.731585 55.332548 34.704100 -178.115160 -28.997319 -11.754056 0.747127 12.797194 6.707376 0.071844 7.431707 2.248476 0.155922 9.288279 2.801322 0.087785 7.431431 2.234873 1.044912 23.303996 -0.433306 1.224989 -0.681057 -0.705528 -3.987691 2.588034 -4.167886 -12.194212 -7.970974 7.205001 41.185465 -76.174380 -23.097017 9.869173 -14.389772 -19.542549 -10.454216 4.280042 -2.257735 3.355069 -1.566130 -1.808639 -87.690872 -77.613287 98.023723 13.653884 -37.439254 13.946809 -18.614811 -35.839774 6.520693 53.008353 84.835360 47.832769 -1.299316 -20.323755 3.254877 -1.269608 2.789557 -0.566050 -17.218417 -47.945225 18.118142 179.385498 79.984070 173.906136 -2.401202 -18.168943 2.651642 -0.113107 -0.458276 -0.058884
-12.723235 55.328730 34.711203 -178.117415 -29.105080 -11.785803 0.760582 12.906942 6.751998 0.077702 7.481349 2.259560 0.161862 9.361103 2.816246 0.091996 7.489680 2.246611 0.952153 23.321530 -0.495585 1.139191 -0.660756 -0.751433 -4.012091 2.597022 -4.141164 -12.185741 -8.082722 7.159437 41.799296 -76.243274 -23.727181 9.876072 -14.395280 -19.584494 -10.493847 4.330169 -2.242214 3.321866 -1.655588 -1.776466 -87.873031 -77.576411 98.200637 13.626973 -37.487401 13.909989 -18.594421 -35.736632 6.520154 53.032543 84.825548 47.859835 -1.237700 -20.308788 3.208887 -1.278282 2.784129 -0.548241 -17.156180 -47.855525 18.096051 179.423166 79.974282 173.973992 -2.392856 -18.165507 2.652164 -0.116092 -0.463014 -0.058668
